<?xml version="1.0" encoding="UTF-8"?> <svg xmlns="http://www.w3.org/2000/svg" id="Layer_1" viewBox="0 0 364.05 364.04"><defs><style> .cls-1, .cls-2 { fill: #fff; } .cls-2 { fill-rule: evenodd; } .cls-3, .cls-4 { fill: none; } .cls-4 { stroke: #fff; stroke-linecap: round; stroke-linejoin: round; stroke-width: 2px; } </style></defs><g><polygon class="cls-3" points="101.63 238.07 107.69 238.07 104.66 229.3 101.63 238.07"></polygon><path class="cls-3" d="M251.17,228.75c-.56-.53-1.41-.79-2.55-.79h-3.51v6.15h3.51c1.14,0,1.99-.28,2.55-.83.56-.55.84-1.32.84-2.29s-.28-1.71-.84-2.24Z"></path><path class="cls-3" d="M272.05,228.79c-.96-.56-2.07-.84-3.33-.84s-2.38.28-3.34.84c-.97.56-1.73,1.37-2.27,2.42s-.81,2.28-.81,3.67.27,2.63.81,3.69c.54,1.06,1.29,1.88,2.27,2.45.97.57,2.08.85,3.34.85s2.37-.29,3.33-.85c.96-.57,1.71-1.38,2.25-2.45.54-1.06.81-2.29.81-3.69s-.27-2.62-.81-3.67-1.29-1.85-2.25-2.42Z"></path><path class="cls-3" d="M308.71,227.9h-3.33v6.09h3.33c1.16,0,2.02-.27,2.58-.79.56-.53.84-1.28.84-2.24,0-2.04-1.14-3.06-3.42-3.06Z"></path><path class="cls-3" d="M183.06,228.75c-.56-.53-1.41-.79-2.55-.79h-3.51v6.15h3.51c1.14,0,1.99-.28,2.55-.83.56-.55.84-1.32.84-2.29s-.28-1.71-.84-2.24Z"></path><polygon class="cls-1" points="57.87 239.69 50.19 217.49 44.19 217.49 54.43 245.41 61.23 245.41 71.47 217.49 65.51 217.49 57.87 239.69"></polygon><rect class="cls-1" x="72.62" y="224.47" width="4.2" height="20.94"></rect><polygon class="cls-1" points="78.71 227.86 84.29 227.86 84.29 245.41 88.49 245.41 88.49 227.86 94.07 227.86 94.07 224.47 78.71 224.47 78.71 227.86"></polygon><path class="cls-1" d="M102.23,224.44l-7.53,20.97h4.41l1.38-3.99h8.34l1.38,3.99h4.44l-7.53-20.97h-4.89ZM101.63,238.07l3.03-8.76,3.03,8.76h-6.06Z"></path><polygon class="cls-1" points="120.53 224.47 116.33 224.47 116.33 245.41 127.43 245.41 127.43 242.08 120.53 242.08 120.53 224.47"></polygon><path class="cls-1" d="M144.07,223.32c1.27-.76,2.71-1.14,4.34-1.14,1.52,0,2.86.33,4.02,1,1.16.67,2.06,1.67,2.7,3h6.44c-.93-2.83-2.57-5.04-4.92-6.64-2.35-1.6-5.08-2.4-8.2-2.4-2.67,0-5.07.61-7.22,1.82-2.15,1.21-3.84,2.91-5.08,5.08-1.24,2.17-1.86,4.63-1.86,7.38s.62,5.2,1.86,7.36c1.24,2.16,2.93,3.85,5.08,5.06,2.15,1.21,4.55,1.82,7.22,1.82,3.15,0,5.89-.79,8.22-2.38,2.33-1.59,3.97-3.81,4.9-6.66h-6.44c-.64,1.33-1.54,2.34-2.7,3.02-1.16.68-2.5,1.02-4.02,1.02-1.63,0-3.07-.38-4.34-1.14-1.27-.76-2.25-1.84-2.96-3.24-.71-1.4-1.06-3.02-1.06-4.86s.35-3.49,1.06-4.88c.71-1.39,1.69-2.46,2.96-3.22Z"></path><path class="cls-1" d="M187.02,234.63c.8-1.11,1.2-2.35,1.2-3.73,0-1.2-.29-2.29-.86-3.26-.57-.97-1.42-1.74-2.56-2.31-1.14-.57-2.52-.86-4.14-.86h-7.86v20.94h4.2v-8.16h1.98l4.62,8.16h4.86l-5.01-8.49c1.58-.42,2.77-1.18,3.57-2.29ZM180.51,234.11h-3.51v-6.15h3.51c1.14,0,1.99.27,2.55.79.56.53.84,1.28.84,2.24s-.28,1.75-.84,2.29c-.56.55-1.41.83-2.55.83Z"></path><polygon class="cls-1" points="190.89 245.41 203.04 245.41 203.04 241.99 195.09 241.99 195.09 236.44 202.14 236.44 202.14 233.11 195.09 233.11 195.09 227.86 203.04 227.86 203.04 224.44 190.89 224.44 190.89 245.41"></polygon><path class="cls-1" d="M223.84,234.17h9.6c-.43,2.03-1.32,3.61-2.68,4.74-1.36,1.13-3.11,1.7-5.24,1.7-1.73,0-3.25-.37-4.56-1.12-1.31-.75-2.33-1.81-3.06-3.2-.73-1.39-1.1-3.01-1.1-4.88s.36-3.41,1.08-4.8c.72-1.39,1.72-2.45,3-3.2,1.28-.75,2.75-1.12,4.4-1.12,1.49,0,2.8.31,3.92.92,1.12.61,2,1.51,2.64,2.68h6.44c-.88-2.77-2.48-4.93-4.8-6.46-2.32-1.53-5.05-2.3-8.2-2.3-2.67,0-5.09.61-7.26,1.82-2.17,1.21-3.88,2.91-5.12,5.08-1.24,2.17-1.86,4.63-1.86,7.38s.62,5.2,1.86,7.36c1.24,2.16,2.95,3.85,5.12,5.06,2.17,1.21,4.61,1.82,7.3,1.82,2.4,0,4.57-.5,6.5-1.5s3.51-2.33,4.74-3.98c1.23-1.65,2.03-3.45,2.4-5.4v-4.88h-15.12v4.28Z"></path><path class="cls-1" d="M255.13,234.63c.8-1.11,1.2-2.35,1.2-3.73,0-1.2-.29-2.29-.86-3.26-.57-.97-1.42-1.74-2.56-2.31-1.14-.57-2.52-.86-4.14-.86h-7.86v20.94h4.2v-8.16h1.98l4.62,8.16h4.86l-5.01-8.49c1.58-.42,2.77-1.18,3.57-2.29ZM248.62,234.11h-3.51v-6.15h3.51c1.14,0,1.99.27,2.55.79.56.53.84,1.28.84,2.24s-.28,1.75-.84,2.29c-.56.55-1.41.83-2.55.83Z"></path><path class="cls-1" d="M274.13,225.55c-1.63-.92-3.44-1.38-5.42-1.38s-3.76.46-5.4,1.38c-1.64.92-2.94,2.2-3.9,3.83-.96,1.63-1.44,3.46-1.44,5.5s.48,3.91,1.44,5.54c.96,1.63,2.26,2.91,3.9,3.83s3.44,1.38,5.4,1.38,3.76-.46,5.4-1.38c1.64-.92,2.93-2.19,3.88-3.83.95-1.63,1.42-3.47,1.42-5.54s-.48-3.87-1.42-5.5c-.95-1.63-2.24-2.9-3.87-3.83ZM274.3,238.57c-.54,1.06-1.29,1.88-2.25,2.45-.96.57-2.07.85-3.33.85s-2.38-.29-3.34-.85c-.97-.57-1.73-1.38-2.27-2.45-.54-1.06-.81-2.29-.81-3.69s.27-2.62.81-3.67,1.29-1.85,2.27-2.42c.97-.56,2.08-.84,3.34-.84s2.37.28,3.33.84c.96.56,1.71,1.37,2.25,2.42s.81,2.28.81,3.67-.27,2.63-.81,3.69Z"></path><path class="cls-1" d="M294.04,237.43c0,1.42-.37,2.51-1.11,3.26s-1.79,1.12-3.15,1.12-2.38-.38-3.12-1.12c-.74-.75-1.11-1.83-1.11-3.26v-12.96h-4.2v12.93c0,1.78.37,3.29,1.11,4.51.74,1.23,1.74,2.16,3.01,2.78s2.69.93,4.25.93,3.01-.31,4.3-.93,2.32-1.54,3.09-2.78c.77-1.23,1.15-2.73,1.15-4.51v-12.93h-4.23v12.96Z"></path><path class="cls-1" d="M315.59,227.62c-.57-.98-1.43-1.75-2.57-2.31-1.14-.56-2.52-.84-4.14-.84h-7.71v20.94h4.2v-8.04h3.51c1.72,0,3.14-.3,4.27-.9,1.13-.6,1.96-1.39,2.49-2.37.53-.98.79-2.03.79-3.15,0-1.24-.29-2.35-.85-3.33ZM311.29,233.19c-.56.53-1.42.79-2.58.79h-3.33v-6.09h3.33c2.28,0,3.42,1.02,3.42,3.06,0,.96-.28,1.71-.84,2.24Z"></path></g><g><path class="cls-2" d="M164.22,203.35c-22.25-19.01-99.39-86.54-37.31-113.15-26.72,20.65-14.01,52.81,38.09,96.56,9.32-13.08,14.16-28.92,13.71-45.13,4.43,21.69-.86,44.27-14.5,61.72Z"></path><circle class="cls-1" cx="162.52" cy="169.58" r="5.35"></circle></g><path class="cls-2" d="M185.42,89.9c28.81-34.55,101.03.78,35.18,75.21-15.8,16.47-33.77,30.78-53.37,42.49,26.61-31.08,27.65-76.66,2.42-108.9-6.82-9.21-17.33-15.02-28.77-15.95-11.44-.93-22.73,3.13-30.97,11.11,17.93-25.68,44.83-21.21,65.48-4.7,18.49,14.76,31.75,39.17,35.48,61.49,56.54-42.71,10.44-90.49-25.45-60.75Z"></path><path class="cls-2" d="M229.55,109.13c-1.68-6.22-8.05-9.88-14.24-8.24-6.22,1.68-9.91,8.05-8.24,14.27,1.64,6.19,8.05,9.88,14.24,8.2,6.22-1.64,9.88-8.05,8.24-14.24Z"></path><g><path class="cls-4" d="M78.3,284.27s32.22-.45,35.72-.45,4.76-5.85,10.91-5.85,5.87,5.85,11.75,5.85h15.1c11.85,0,12.87-60.42,15.1-60.42s4.2,90.63,7.55,90.63,4.41-30.21,15.1-30.21h7.55c7.41,0,12.08-15.1,19.64-15.1s11.8,15.1,19.64,15.1c6.15,0,50.36-1.09,53.86-1.09"></path><line class="cls-4" x1="164.69" y1="241.46" x2="168.24" y2="241.45"></line></g><path class="cls-1" d="M182.03,327.8c-10.47,0-20.95-1.01-31.23-3.03-10.28-2.03-20.36-5.07-30.04-9.08-9.68-4.01-18.97-8.95-27.69-14.77-8.72-5.81-16.87-12.48-24.3-19.88-7.42-7.4-14.14-15.52-20-24.22-5.86-8.7-10.87-17.98-14.92-27.66-4.05-9.68-7.14-19.77-9.22-30.07-2.07-10.3-3.13-20.8-3.16-31.31-.03-10.51.96-21.03,2.97-31.35,2.01-10.32,5.04-20.45,9.04-30.19,7.99-19.47,19.87-37.35,34.75-52.28,14.87-14.93,32.68-26.94,52.17-35.02,9.74-4.05,19.88-7.12,30.22-9.18,10.34-2.05,20.89-3.09,31.43-3.09,10.54.01,21.09,1.04,31.43,3.1,10.34,2.05,20.48,5.13,30.22,9.18,19.48,8.09,37.29,20.1,52.16,35.02,14.87,14.93,26.75,32.81,34.74,52.28,4,9.73,7.03,19.86,9.04,30.19,2.01,10.32,2.99,20.84,2.97,31.35-.04,10.51-1.09,21.01-3.16,31.31-2.07,10.3-5.16,20.39-9.22,30.07-4.05,9.68-9.06,18.96-14.92,27.66-5.86,8.7-12.58,16.81-20,24.22-7.43,7.4-15.58,14.07-24.3,19.88-8.72,5.82-18.01,10.76-27.69,14.77-9.68,4.01-19.76,7.05-30.04,9.08-10.28,2.03-20.75,3.04-31.23,3.03ZM182.03,325.62c5.17-.02,10.33-.28,15.47-.8.64-.05,1.28-.13,1.93-.21l1.92-.23c.64-.07,1.28-.17,1.92-.27l1.92-.28c2.55-.4,5.09-.86,7.62-1.38,5.06-1.03,10.05-2.37,14.96-3.93,1.23-.37,2.45-.81,3.67-1.22,1.22-.4,2.43-.87,3.63-1.31,1.21-.44,2.4-.94,3.59-1.42,1.2-.47,2.37-1,3.55-1.51,2.36-1.03,4.69-2.12,6.99-3.27,2.3-1.15,4.56-2.37,6.79-3.64,2.23-1.27,4.43-2.6,6.59-3.97,2.16-1.38,4.28-2.83,6.37-4.31,4.17-2.98,8.19-6.15,12-9.55,3.83-3.38,7.49-6.94,10.93-10.69,3.45-3.75,6.71-7.65,9.73-11.71,3.03-4.06,5.86-8.26,8.45-12.59l.96-1.63c.32-.54.64-1.08.94-1.64l.92-1.65c.31-.55.61-1.1.9-1.66,1.18-2.22,2.3-4.47,3.36-6.75,1.06-2.27,2.07-4.57,3.02-6.89.94-2.32,1.82-4.66,2.64-7.02,1.65-4.71,3.04-9.5,4.18-14.33,1.14-4.83,2.04-9.7,2.7-14.59,1.31-9.78,1.6-19.64.97-29.38-.64-9.74-2.23-19.35-4.71-28.64-1.23-4.65-2.69-9.22-4.36-13.7-1.67-4.48-3.57-8.85-5.65-13.12-8.33-17.07-19.85-32.31-33.59-44.86-13.74-12.55-29.68-22.42-46.75-29.03-4.27-1.66-8.61-3.09-13-4.35-1.1-.3-2.19-.63-3.3-.9-1.11-.27-2.21-.58-3.32-.82l-1.67-.38c-.28-.06-.56-.13-.83-.19l-.84-.17-1.68-.35-.84-.17-.84-.15c-4.48-.84-9.01-1.45-13.55-1.87-4.54-.43-9.11-.64-13.68-.62-18.29,0-36.48,3.38-53.55,10.02-17.06,6.63-32.98,16.49-46.7,29.04-13.72,12.55-25.23,27.77-33.55,44.83-8.35,17.04-13.43,35.94-14.72,55.41-.63,9.74-.34,19.58.95,29.36.65,4.89,1.55,9.76,2.69,14.59,1.14,4.83,2.52,9.62,4.17,14.33,1.64,4.71,3.52,9.36,5.65,13.9,1.06,2.27,2.18,4.52,3.36,6.75.29.56.59,1.11.9,1.66l.92,1.65c.3.55.62,1.09.94,1.64l.96,1.63c.31.55.65,1.08.98,1.62l1,1.61c.33.54.68,1.06,1.03,1.59l1.04,1.59c.7,1.05,1.44,2.08,2.16,3.12.73,1.03,1.49,2.05,2.23,3.07.76,1.01,1.54,2.01,2.31,3.02.79.99,1.59,1.98,2.39,2.96l2.47,2.9,2.55,2.84,2.62,2.78c.9.9,1.79,1.82,2.69,2.71.92.88,1.84,1.76,2.77,2.64.95.86,1.88,1.72,2.84,2.57.97.83,1.92,1.68,2.9,2.5.99.81,1.96,1.64,2.97,2.43,1.01.78,2.01,1.58,3.04,2.35l1.54,1.14c.52.38,1.03.77,1.55,1.13,2.09,1.49,4.2,2.93,6.36,4.31,2.16,1.37,4.36,2.7,6.59,3.97,2.23,1.27,4.49,2.49,6.79,3.65,2.3,1.15,4.63,2.24,6.99,3.27,1.18.5,2.35,1.04,3.55,1.51,1.2.48,2.38.98,3.59,1.42,1.21.45,2.41.91,3.63,1.32,1.22.41,2.43.85,3.67,1.22,4.91,1.56,9.9,2.9,14.96,3.94,2.53.52,5.07.98,7.62,1.38l1.92.29c.64.1,1.28.19,1.92.27l1.92.23c.64.07,1.28.16,1.93.21,5.14.52,10.3.78,15.47.8Z"></path><g><path class="cls-1" d="M214.45,340.56c-1.92.44-2.6,3.06-2.08,5.3.21.94.89,1.74,1.92,1.5,1.4-.32,1.98-2.4,2.16-6.03-.36-.58-1.18-.96-2-.77Z"></path><path class="cls-1" d="M240.43,345.43c.17.4.56.65,1.2.38,1.02-.43,1.96-2.08,1.92-4.88-1.32.82-3.67,3.2-3.12,4.5Z"></path><path class="cls-1" d="M180.17,344.29c-1.94-.03-3.17,1.94-3.21,3.88-.02,1.25.59,1.88,1.53,1.9,1.82.03,2.87-2.54,3.65-4.79-.38-.51-1.14-.98-1.98-.99Z"></path><path class="cls-1" d="M174.65,356.48c-.01.7.54.97,1.23.98,1.18.02,2.56-1.04,3.54-3.66-1.51.24-4.75,1.17-4.77,2.68Z"></path><path class="cls-1" d="M360.42,145.72c-2.36-11.67-5.88-23.1-10.48-34.07-4.6-10.97-10.29-21.48-16.94-31.33-6.65-9.85-14.28-19.03-22.69-27.41-8.42-8.37-17.66-15.92-27.54-22.5-9.88-6.58-20.41-12.17-31.37-16.71-10.96-4.54-22.38-7.98-34.02-10.27C205.74,1.13,193.88,0,182.02,0c-11.86,0-23.72,1.13-35.36,3.43-11.64,2.29-23.05,5.74-34.02,10.27-10.96,4.54-21.49,10.13-31.37,16.71-9.88,6.58-19.12,14.12-27.54,22.5-8.41,8.38-16.03,17.56-22.68,27.42-6.65,9.85-12.34,20.36-16.94,31.32-4.6,10.97-8.12,22.4-10.48,34.07C1.26,157.39.06,169.3,0,181.21c-.04,11.91,1.06,23.84,3.33,35.54,2.26,11.71,5.69,23.2,10.22,34.24,9.04,22.09,22.49,42.39,39.35,59.34,16.86,16.94,37.06,30.58,59.16,39.77,11.05,4.59,22.55,8.09,34.29,10.42,11.74,2.33,23.7,3.5,35.67,3.52,11.96-.01,23.93-1.18,35.67-3.52,11.74-2.33,23.24-5.83,34.29-10.42,22.11-9.18,42.31-22.83,59.17-39.77,16.87-16.94,30.31-37.25,39.36-59.34,4.53-11.04,7.95-22.53,10.22-34.24,2.27-11.71,3.37-23.63,3.33-35.55-.06-11.91-1.26-23.82-3.62-35.49ZM180.93,353.9c-1.31,3.82-3.3,5.03-5.36,5-1.56-.03-2.63-.88-2.6-2.23.04-2.71,4.31-3.82,6.93-4.26l.76-2.2c-.59.78-1.65,1.32-2.61,1.3-1.25-.02-2.28-.71-2.63-2.03-1.16,1.54-2.8,2.93-4.27,2.82-1.24-.1-1.92-.92-1.83-2.14.15-1.89,2.21-3.82,2.32-5.18.05-.57-.15-.9-.72-.95-2.39-.19-4.83,4.09-6.02,7.54l-1.7-.14c.31-.74.62-1.48.92-2.21-1.17,1.21-2.6,2.16-3.86,1.99-1.64-.22-1.95-1.35-1.59-2.92-1.26,1.26-2.86,2.29-4.11,2.06-1.3-.24-1.8-1.33-1.59-2.49.3-1.6,1.6-3.36,2.8-5.12-.55-.08-1.5-.35-2.24-.71-1.37,2.5-3.11,4.38-4.49,5.41-.48.37-.87.37-1.04.16-1.03.64-2.12,1.01-3.04.78-1.18-.3-1.66-1.44-1.07-2.78-1.03,1.22-2.51,1.86-3.69,1.55-1.56-.4-2.06-1.59-1.37-3.56-1.47,1.22-3.34,2.19-4.73,1.75-1.77-.56-1.86-1.97-1.1-3.75-1.55,1.21-3.61,2.21-4.95,1.71-1.24-.46-1.54-1.63-1.13-2.73.57-1.53,2.16-3.03,3.66-4.55-.53-.17-1.41-.61-2.08-1.09-1.78,2.23-3.82,3.77-5.37,4.54-.53.28-.92.21-1.05-.02-1.12.45-2.25.63-3.11.24-1.12-.51-1.39-1.71-.57-2.92-1.23,1.02-2.79,1.4-3.91.89-1.5-.68-1.76-1.98-.66-3.87-1.72.99-3.88,1.68-5.23.95-1.1-.6-1.38-1.63-.8-2.7.91-1.67,3.57-2.59,4.22-3.8.28-.51.24-.88-.27-1.16-2.11-1.15-6.07,1.78-8.56,4.44l-1.5-.81c2.36-2.24,4.74-4.5,7.17-6.7l1.43.78-1.71,1.53c1.67-.87,3.25-.96,4.46-.31,1.05.57,1.37,1.65.8,2.7-.78,1.43-3.7,2.69-4.34,3.87-.23.42-.13.75.25.95.97.53,3.33-.46,5.64-1.88v.05c.74-.86,1.69-1.8,2.85-2.83l1.6.72c-4.13,3.69-5.74,6.09-4.26,6.77,1.46.66,3.42-1.03,7.47-5.31l1.66.75c-4.58,4.51-5.86,6.07-4.77,6.56.98.45,3.31-.56,5.55-2.25l-.02.1c1.11-1.11,2.12-2.42,2.94-3.78l1.48.56c-.17.24-.32.52-.49.76.99.65,2.91,1.48,3.81,1.79-1.53,1.55-4.08,3.98-4.56,5.24-.22.58-.11.98.38,1.17.94.35,3.69-1.3,5.19-2.69v.11c.42-.68.92-1.37,1.44-2.07l-1.23-.39.89-1.2,1.26.4c.78-1.01,1.57-2.02,2.3-2.97l1.65.52c-.87,1.08-1.66,2.07-2.35,2.96l2.08.66-.91,1.2-2.11-.67c-2.76,3.7-3.69,5.68-2.34,6.1,1.01.32,3.15-.91,5.16-2.8.59-.97,1.35-2.05,2.31-3.25l1.7.44c-3.42,4.35-4.6,7-3.02,7.4,1.56.4,3.19-1.61,6.43-6.52l1.77.45c-3.72,5.24-4.72,6.99-3.56,7.29,1.05.27,3.16-1.12,5.08-3.18v.11c.9-1.29,1.67-2.76,2.24-4.25l1.56.29c-.12.27-.23.57-.35.84,1.08.47,3.12.94,4.07,1.1-1.24,1.8-3.32,4.63-3.57,5.95-.11.61.06.99.58,1.08.92.17,3.07-1.64,4.35-3.21.57-1.23,1.29-2.56,2-3.87l1.74.23c-2.06,3.77-4.18,7.45-2.58,7.67,1.07.14,2.99-1.49,4.67-3.75v.06c.51-1.19,1.02-2.39,1.54-3.57l1.63.13-.94,2.09c1.18-1.47,2.58-2.2,3.95-2.09,1.2.1,1.92.95,1.83,2.14-.13,1.63-2.29,3.96-2.4,5.3-.04.48.18.74.61.77.91.07,2.28-1.2,3.6-2.92.27-2.71,2.32-5.04,4.69-5,1.27.02,2.2.61,2.67,1.22l.33-.93,1.68.03-3.72,10.76ZM162.49,339.33c.11-.83.9-1.48,1.64-1.38.52.07.85.5.78,1.05-.11.78-.9,1.48-1.62,1.38-.57-.08-.87-.53-.8-1.05ZM242.08,347.16c-1.57.67-2.69.1-3.09-.83-1.08-2.54,2.49-5.57,4.42-6.85l-.2-2.5c-.17,1.14-.83,1.97-1.74,2.35-1.37.58-2.35.04-2.99-1.33-.36,2.01-1.27,4.21-2.75,4.75-1.7.63-2.63-.36-3.13-2.14-.48,1.86-1.43,3.76-2.83,4.21-1.59.52-2.36-.38-2.71-1.99-.59,1.71-1.59,3.35-2.92,3.71-1.49.41-2.27-.26-2.58-1.91-.67,1.62-1.71,3.12-2.98,3.42-1.26.29-1.85-.56-2.06-1.15-.28.73-.81,1.81-2.36,2.17-1.49.34-2.74-.62-3.29-2.19-.75,1.66-1.92,3.23-3.28,3.46-1.79.31-2.52-.83-2.69-2.67-.81,1.74-2.1,3.42-3.56,3.61-2.32.3-2.56-1.82-2.13-4.69-.8.48-1.86.79-2.91.58-.87,2.74-2.67,4.93-4.77,5.09-1.58.12-2.35-1.09-2.45-2.38-.15-1.87.51-4.88,1.27-7.1l1.72-.14c-.85,2.67-1.45,5.39-1.34,6.82.07.86.4,1.17,1.03,1.12,1.53-.12,3.77-4.1,3.23-8.17l1.75-.14c.16,1.14.11,2.33-.09,3.47,1.03.19,2.22-.14,2.91-1.05.2-.95.43-1.93.66-2.91l1.74-.23c-1,4.17-2.09,8.29-.49,8.08,1.06-.14,2.46-2.17,3.49-4.76.08-.77.19-1.58.33-2.41l-1.28.22.23-1.48,1.3-.22c.22-1.25.47-2.52.68-3.7l1.7-.29c-.28,1.36-.53,2.6-.73,3.7l2.15-.37-.26,1.48-2.18.37c-.75,4.56-.67,6.74.72,6.5.9-.15,2-1.7,2.87-3.77-.12-2.72,1.2-5.34,3.54-5.88,1.01-.23,2.12.2,2.59.78l.13-1.16,1.64-.38c-.82,6.74-.89,8.35.14,8.12.98-.23,2.11-2.17,2.87-4.64,0-.06,0-.11,0-.18.11-2.62.42-6.48.71-10.25l1.71-.47c-.41,4.44-.69,8.25-.77,10.51-.15,2.9.03,3.77.96,3.52,1-.27,2.08-2.37,2.76-4.97-.01-1.33.06-2.79.12-4.23l1.67-.54c-.22,4.29-.53,8.53,1,8.03,1.02-.33,2.03-2.6,2.56-5.34-.06-.77-.1-1.58-.11-2.41l-1.22.45-.04-1.49,1.24-.46c0-1.28,0-2.56,0-3.76l1.62-.6c-.02,1.39-.05,2.65-.04,3.78l2.05-.76.02,1.5-2.07.76c.09,4.62.57,6.75,1.9,6.26,1-.37,1.94-2.68,2.35-5.42-.18-1.12-.28-2.44-.27-3.93l1.62-.68c-.04,3.41.29,7.46,2.13,6.68,2.03-.86,1.49-4.98,1.25-8.12l1.59-.67c.22,3.77.54,7.3.8,11.05.26,3.75-.93,6.29-2.88,7.11ZM201.61,337.48c.52-.07.95.26,1.03.81.1.79-.48,1.66-1.2,1.75-.57.08-.98-.28-1.05-.81-.11-.83.49-1.66,1.22-1.76ZM227.5,331.21c.5-.16.98.08,1.16.61.24.75-.17,1.72-.85,1.95-.55.18-1.02-.1-1.18-.6-.26-.8.17-1.72.88-1.95ZM346.05,181.21c-1.92,21.53-8.06,42.17-17.6,60.64-9.53,18.49-22.44,34.82-37.57,48.21-15.16,13.38-32.52,23.83-51.01,30.82-9.25,3.5-18.77,6.15-28.45,7.92-9.68,1.77-19.52,2.66-29.39,2.67-9.88,0-19.71-.87-29.4-2.62-9.69-1.75-19.22-4.39-28.47-7.88-9.25-3.49-18.23-7.84-26.79-13-.54-.31-1.07-.65-1.6-.98l-1.59-.99c-.54-.32-1.05-.68-1.58-1.02l-1.57-1.03c-1.05-.69-2.07-1.41-3.11-2.11-1.03-.72-2.04-1.46-3.07-2.19-1.01-.74-2.01-1.51-3.02-2.27l-2.96-2.34-2.93-2.4-2.87-2.47c-15.16-13.39-28.08-29.74-37.62-48.25-9.55-18.49-15.7-39.16-17.6-60.7-.94-10.77-.86-21.7.34-32.6.61-5.45,1.48-10.89,2.65-16.29,1.17-5.4,2.61-10.77,4.34-16.06.86-2.65,1.8-5.28,2.8-7.89,1.01-2.61,2.09-5.19,3.23-7.75,1.14-2.56,2.35-5.1,3.62-7.61.31-.63.64-1.25.98-1.87l1-1.86c.33-.63.68-1.24,1.02-1.85l1.04-1.84c.34-.62.71-1.22,1.07-1.83l1.09-1.82c.73-1.21,1.5-2.4,2.26-3.59.77-1.19,1.58-2.35,2.36-3.53.8-1.17,1.64-2.32,2.45-3.48,3.32-4.61,6.92-9.04,10.73-13.29,3.8-4.27,7.87-8.31,12.12-12.16,4.25-3.86,8.72-7.49,13.37-10.89,9.31-6.79,19.36-12.63,29.94-17.35,10.58-4.72,21.7-8.33,33.08-10.74,11.38-2.41,23.03-3.61,34.68-3.62,11.65.01,23.3,1.22,34.68,3.63,11.38,2.41,22.49,6.02,33.07,10.75,21.17,9.45,40.18,23.39,55.4,40.42l2.81,3.22,2.73,3.29c.89,1.12,1.76,2.23,2.63,3.36.85,1.14,1.71,2.27,2.54,3.42.82,1.16,1.65,2.31,2.45,3.48.79,1.18,1.59,2.34,2.36,3.53l1.14,1.79c.37.6.76,1.19,1.12,1.8l1.09,1.82c.36.61.73,1.21,1.07,1.83l1.04,1.84c.35.61.7,1.22,1.02,1.85l.99,1.86c.33.62.67,1.24.97,1.87,1.27,2.51,2.47,5.05,3.61,7.61,1.14,2.56,2.22,5.14,3.22,7.75,1,2.61,1.93,5.24,2.79,7.89,3.45,10.58,5.77,21.45,6.96,32.34,1.19,10.9,1.27,21.82.32,32.58Z"></path></g></svg> 