<?xml version="1.0" encoding="UTF-8"?> <svg xmlns="http://www.w3.org/2000/svg" id="Layer_1" viewBox="0 0 364.05 364.04"><defs><style> .cls-1 { fill: none; stroke: #f54337; stroke-linecap: round; stroke-linejoin: round; stroke-width: 2px; } .cls-2, .cls-3 { fill: #10316d; } .cls-4 { fill: #fff; } .cls-3, .cls-5, .cls-6 { fill-rule: evenodd; } .cls-5 { fill: #42e308; } .cls-7, .cls-6 { fill: #f54337; } </style></defs><g><path class="cls-2" d="M71.47,217.5l-10.24,27.92h-6.8l-10.24-27.92h6l7.68,22.2,7.64-22.2h5.96Z"></path><path class="cls-2" d="M76.82,224.47v20.94h-4.2v-20.94h4.2Z"></path><path class="cls-2" d="M94.07,224.47v3.39h-5.58v17.55h-4.2v-17.55h-5.58v-3.39h15.36Z"></path><path class="cls-2" d="M108.83,241.43h-8.34l-1.38,3.99h-4.41l7.53-20.97h4.89l7.53,20.97h-4.44l-1.38-3.99ZM107.69,238.07l-3.03-8.76-3.03,8.76h6.06Z"></path><path class="cls-2" d="M120.53,242.09h6.9v3.33h-11.1v-20.94h4.2v17.61Z"></path><path class="cls-2" d="M136.15,224.04c1.24-2.17,2.93-3.87,5.08-5.08,2.15-1.21,4.55-1.82,7.22-1.82,3.12,0,5.85.8,8.2,2.4,2.35,1.6,3.99,3.81,4.92,6.64h-6.44c-.64-1.33-1.54-2.33-2.7-3-1.16-.67-2.5-1-4.02-1-1.63,0-3.07.38-4.34,1.14-1.27.76-2.25,1.83-2.96,3.22-.71,1.39-1.06,3.01-1.06,4.88s.35,3.46,1.06,4.86c.71,1.4,1.69,2.48,2.96,3.24,1.27.76,2.71,1.14,4.34,1.14,1.52,0,2.86-.34,4.02-1.02,1.16-.68,2.06-1.69,2.7-3.02h6.44c-.93,2.85-2.57,5.07-4.9,6.66-2.33,1.59-5.07,2.38-8.22,2.38-2.67,0-5.07-.61-7.22-1.82-2.15-1.21-3.84-2.9-5.08-5.06-1.24-2.16-1.86-4.61-1.86-7.36s.62-5.21,1.86-7.38Z"></path><path class="cls-2" d="M183.6,245.42l-4.62-8.16h-1.98v8.16h-4.2v-20.94h7.86c1.62,0,3,.29,4.14.86,1.14.57,2,1.34,2.56,2.31.57.97.86,2.06.86,3.26,0,1.38-.4,2.62-1.2,3.73-.8,1.11-1.99,1.88-3.57,2.29l5.01,8.49h-4.86ZM177,234.11h3.51c1.14,0,1.99-.28,2.55-.83.56-.55.84-1.32.84-2.29s-.28-1.71-.84-2.24c-.56-.53-1.41-.79-2.55-.79h-3.51v6.15Z"></path><path class="cls-2" d="M195.09,227.87v5.25h7.05v3.33h-7.05v5.55h7.95v3.42h-12.15v-20.97h12.15v3.42h-7.95Z"></path><path class="cls-2" d="M231.84,225.9c-.64-1.17-1.52-2.07-2.64-2.68-1.12-.61-2.43-.92-3.92-.92-1.65,0-3.12.37-4.4,1.12-1.28.75-2.28,1.81-3,3.2-.72,1.39-1.08,2.99-1.08,4.8s.37,3.49,1.1,4.88c.73,1.39,1.75,2.45,3.06,3.2,1.31.75,2.83,1.12,4.56,1.12,2.13,0,3.88-.57,5.24-1.7,1.36-1.13,2.25-2.71,2.68-4.74h-9.6v-4.28h15.12v4.88c-.37,1.95-1.17,3.75-2.4,5.4-1.23,1.65-2.81,2.98-4.74,3.98s-4.1,1.5-6.5,1.5c-2.69,0-5.13-.61-7.3-1.82-2.17-1.21-3.88-2.9-5.12-5.06-1.24-2.16-1.86-4.61-1.86-7.36s.62-5.21,1.86-7.38c1.24-2.17,2.95-3.87,5.12-5.08,2.17-1.21,4.59-1.82,7.26-1.82,3.15,0,5.88.77,8.2,2.3,2.32,1.53,3.92,3.69,4.8,6.46h-6.44Z"></path><path class="cls-2" d="M251.71,245.42l-4.62-8.16h-1.98v8.16h-4.2v-20.94h7.86c1.62,0,3,.29,4.14.86,1.14.57,2,1.34,2.56,2.31.57.97.86,2.06.86,3.26,0,1.38-.4,2.62-1.2,3.73-.8,1.11-1.99,1.88-3.57,2.29l5.01,8.49h-4.86ZM245.11,234.11h3.51c1.14,0,1.99-.28,2.55-.83.56-.55.84-1.32.84-2.29s-.28-1.71-.84-2.24c-.56-.53-1.41-.79-2.55-.79h-3.51v6.15Z"></path><path class="cls-2" d="M263.32,244.25c-1.64-.92-2.94-2.19-3.9-3.83-.96-1.63-1.44-3.47-1.44-5.54s.48-3.87,1.44-5.5c.96-1.63,2.26-2.9,3.9-3.83,1.64-.92,3.44-1.38,5.4-1.38s3.78.46,5.42,1.38c1.63.92,2.92,2.2,3.87,3.83.95,1.63,1.42,3.46,1.42,5.5s-.48,3.91-1.42,5.54c-.95,1.63-2.25,2.91-3.88,3.83-1.64.92-3.44,1.38-5.4,1.38s-3.76-.46-5.4-1.38ZM272.05,241.02c.96-.57,1.71-1.38,2.25-2.45.54-1.06.81-2.29.81-3.69s-.27-2.62-.81-3.67-1.29-1.85-2.25-2.42c-.96-.56-2.07-.84-3.33-.84s-2.38.28-3.34.84c-.97.56-1.73,1.37-2.27,2.42s-.81,2.28-.81,3.67.27,2.63.81,3.69c.54,1.06,1.29,1.88,2.27,2.45.97.57,2.08.85,3.34.85s2.37-.29,3.33-.85Z"></path><path class="cls-2" d="M285.55,224.47v12.96c0,1.42.37,2.51,1.11,3.26.74.75,1.78,1.12,3.12,1.12s2.41-.38,3.15-1.12,1.11-1.83,1.11-3.26v-12.96h4.23v12.93c0,1.78-.38,3.29-1.15,4.51-.77,1.23-1.8,2.16-3.09,2.78s-2.72.93-4.3.93-2.97-.31-4.25-.93-2.28-1.54-3.01-2.78c-.74-1.23-1.11-2.73-1.11-4.51v-12.93h4.2Z"></path><path class="cls-2" d="M315.65,234.11c-.53.98-1.36,1.77-2.49,2.37-1.13.6-2.55.9-4.27.9h-3.51v8.04h-4.2v-20.94h7.71c1.62,0,3,.28,4.14.84,1.14.56,2,1.33,2.57,2.31.57.98.85,2.09.85,3.33,0,1.12-.27,2.17-.79,3.15ZM311.29,233.19c.56-.53.84-1.28.84-2.24,0-2.04-1.14-3.06-3.42-3.06h-3.33v6.09h3.33c1.16,0,2.02-.27,2.58-.79Z"></path></g><g><path class="cls-6" d="M164.22,203.35c-22.25-19.01-99.39-86.54-37.31-113.15-26.72,20.65-14.01,52.81,38.09,96.56,9.32-13.08,14.16-28.92,13.71-45.13,4.43,21.69-.86,44.27-14.5,61.72Z"></path><circle class="cls-7" cx="162.52" cy="169.58" r="5.35"></circle></g><path class="cls-3" d="M185.42,89.9c28.81-34.55,101.03.78,35.18,75.21-15.8,16.47-33.77,30.78-53.37,42.49,26.61-31.08,27.65-76.66,2.42-108.9-6.82-9.21-17.33-15.02-28.77-15.95-11.44-.93-22.73,3.13-30.97,11.11,17.93-25.68,44.83-21.21,65.48-4.7,18.49,14.76,31.75,39.17,35.48,61.49,56.54-42.71,10.44-90.49-25.45-60.75Z"></path><path class="cls-5" d="M229.55,109.13c-1.68-6.22-8.05-9.88-14.24-8.24-6.22,1.68-9.91,8.05-8.24,14.27,1.64,6.19,8.05,9.88,14.24,8.2,6.22-1.64,9.88-8.05,8.24-14.24Z"></path><path class="cls-2" d="M182.02,0c11.86,0,23.72,1.13,35.36,3.43,11.64,2.29,23.05,5.74,34.02,10.27,10.96,4.54,21.49,10.13,31.37,16.71,9.88,6.58,19.12,14.12,27.54,22.5,8.41,8.38,16.04,17.56,22.69,27.41,6.65,9.85,12.34,20.36,16.94,31.32,4.6,10.97,8.12,22.4,10.48,34.07,2.36,11.67,3.57,23.57,3.62,35.49.04,11.91-1.06,23.84-3.33,35.55-2.26,11.71-5.69,23.2-10.22,34.24-9.05,22.09-22.49,42.39-39.36,59.34-16.86,16.94-37.06,30.59-59.17,39.77-11.05,4.59-22.55,8.09-34.29,10.42-11.74,2.33-23.7,3.51-35.67,3.52-11.96-.02-23.93-1.19-35.67-3.52-11.74-2.33-23.24-5.83-34.29-10.42-22.1-9.19-42.31-22.83-59.16-39.77-16.86-16.95-30.31-37.25-39.35-59.34-4.53-11.04-7.95-22.53-10.22-34.24C1.06,205.04-.04,193.12,0,181.21c.06-11.91,1.26-23.82,3.62-35.49,2.36-11.67,5.87-23.1,10.48-34.07,4.6-10.97,10.29-21.48,16.94-31.32,6.65-9.85,14.27-19.03,22.68-27.42,8.42-8.37,17.66-15.92,27.54-22.5,9.88-6.58,20.41-12.17,31.37-16.71,10.96-4.54,22.38-7.98,34.02-10.27C158.3,1.13,170.16,0,182.02,0ZM182.02,3.26c-11.65.01-23.3,1.22-34.68,3.62-11.38,2.41-22.49,6.01-33.08,10.74-10.58,4.72-20.64,10.56-29.94,17.35-4.65,3.4-9.12,7.03-13.37,10.89-4.25,3.85-8.32,7.89-12.12,12.16-3.81,4.26-7.41,8.68-10.73,13.29-.82,1.16-1.65,2.31-2.45,3.48-.79,1.18-1.59,2.34-2.36,3.53-.76,1.2-1.53,2.38-2.26,3.59l-1.09,1.82c-.36.61-.73,1.21-1.07,1.83l-1.04,1.84c-.35.61-.7,1.22-1.02,1.85l-1,1.86c-.33.62-.67,1.24-.98,1.87-1.28,2.51-2.48,5.05-3.62,7.61-1.14,2.56-2.22,5.15-3.23,7.75-1,2.61-1.93,5.24-2.8,7.89-1.74,5.29-3.18,10.66-4.34,16.06-1.17,5.4-2.05,10.84-2.65,16.29-1.21,10.9-1.28,21.84-.34,32.6,1.9,21.55,8.05,42.21,17.6,60.7,9.54,18.51,22.46,34.86,37.62,48.25l2.87,2.47,2.93,2.4,2.96,2.34c1.01.75,2,1.52,3.02,2.27,1.03.73,2.03,1.47,3.07,2.19,1.04.7,2.07,1.42,3.11,2.11l1.57,1.03c.52.34,1.04.7,1.58,1.02l1.59.99c.53.33,1.06.67,1.6.98,8.56,5.15,17.53,9.51,26.79,13,9.25,3.49,18.79,6.13,28.47,7.88,9.69,1.76,19.52,2.62,29.4,2.62,9.88-.01,19.71-.9,29.39-2.67,9.68-1.77,19.2-4.42,28.45-7.92,18.49-6.99,35.85-17.44,51.01-30.82,15.14-13.39,28.04-29.72,37.57-48.21,9.54-18.47,15.69-39.11,17.6-60.64.95-10.76.87-21.68-.32-32.58-1.2-10.89-3.51-21.76-6.96-32.34-.86-2.65-1.79-5.28-2.79-7.89-1-2.61-2.08-5.19-3.22-7.75-1.14-2.56-2.35-5.1-3.61-7.61-.31-.63-.64-1.25-.97-1.87l-.99-1.86c-.33-.63-.68-1.24-1.02-1.85l-1.04-1.84c-.34-.62-.71-1.22-1.07-1.83l-1.09-1.82c-.36-.61-.74-1.2-1.12-1.8l-1.14-1.79c-.77-1.19-1.57-2.35-2.36-3.53-.8-1.17-1.63-2.32-2.45-3.48-.83-1.15-1.69-2.28-2.54-3.42-.87-1.13-1.75-2.25-2.63-3.36l-2.73-3.29-2.81-3.22c-15.22-17.03-34.23-30.98-55.4-40.42-10.58-4.73-21.69-8.34-33.07-10.75-11.38-2.41-23.03-3.62-34.68-3.63Z"></path><g><path class="cls-1" d="M78.3,284.27s32.22-.45,35.72-.45,4.76-5.85,10.91-5.85,5.87,5.85,11.75,5.85h15.1c11.85,0,12.87-60.42,15.1-60.42s4.2,90.63,7.55,90.63,4.41-30.21,15.1-30.21h7.55c7.41,0,12.08-15.1,19.64-15.1s11.8,15.1,19.64,15.1c6.15,0,50.36-1.09,53.86-1.09"></path><line class="cls-1" x1="164.69" y1="241.46" x2="168.24" y2="241.45"></line></g><path class="cls-7" d="M182.03,327.8c-10.47,0-20.95-1.01-31.23-3.03-10.28-2.03-20.36-5.07-30.04-9.08-9.68-4.01-18.97-8.95-27.69-14.77-8.72-5.81-16.87-12.48-24.3-19.88-7.42-7.4-14.14-15.52-20-24.22-5.86-8.7-10.87-17.98-14.92-27.66-4.05-9.68-7.14-19.77-9.22-30.07-2.07-10.3-3.13-20.8-3.16-31.31-.03-10.51.96-21.03,2.97-31.35,2.01-10.32,5.04-20.45,9.04-30.19,7.99-19.47,19.87-37.35,34.75-52.28,14.87-14.93,32.68-26.94,52.17-35.02,9.74-4.05,19.88-7.12,30.22-9.18,10.34-2.05,20.89-3.09,31.43-3.09,10.54.01,21.09,1.04,31.43,3.1,10.34,2.05,20.48,5.13,30.22,9.18,19.48,8.09,37.29,20.1,52.16,35.02,14.87,14.93,26.75,32.81,34.74,52.28,4,9.73,7.03,19.86,9.04,30.19,2.01,10.32,2.99,20.84,2.97,31.35-.04,10.51-1.09,21.01-3.16,31.31-2.07,10.3-5.16,20.39-9.22,30.07-4.05,9.68-9.06,18.96-14.92,27.66-5.86,8.7-12.58,16.81-20,24.22-7.43,7.4-15.58,14.07-24.3,19.88-8.72,5.82-18.01,10.76-27.69,14.77-9.68,4.01-19.76,7.05-30.04,9.08-10.28,2.03-20.75,3.04-31.23,3.03ZM182.03,325.62c5.17-.02,10.33-.28,15.47-.8.64-.05,1.28-.13,1.93-.21l1.92-.23c.64-.07,1.28-.17,1.92-.27l1.92-.28c2.55-.4,5.09-.86,7.62-1.38,5.06-1.03,10.05-2.37,14.96-3.93,1.23-.37,2.45-.81,3.67-1.22,1.22-.4,2.43-.87,3.63-1.31,1.21-.44,2.4-.94,3.59-1.42,1.2-.47,2.37-1,3.55-1.51,2.36-1.03,4.69-2.12,6.99-3.27,2.3-1.15,4.56-2.37,6.79-3.64,2.23-1.27,4.43-2.6,6.59-3.97,2.16-1.38,4.28-2.83,6.37-4.31,4.17-2.98,8.19-6.15,12-9.55,3.83-3.38,7.49-6.94,10.93-10.69,3.45-3.75,6.71-7.65,9.73-11.71,3.03-4.06,5.86-8.26,8.45-12.59l.96-1.63c.32-.54.64-1.08.94-1.64l.92-1.65c.31-.55.61-1.1.9-1.66,1.18-2.22,2.3-4.47,3.36-6.75,1.06-2.27,2.07-4.57,3.02-6.89.94-2.32,1.82-4.66,2.64-7.02,1.65-4.71,3.04-9.5,4.18-14.33,1.14-4.83,2.04-9.7,2.7-14.59,1.31-9.78,1.6-19.64.97-29.38-.64-9.74-2.23-19.35-4.71-28.64-1.23-4.65-2.69-9.22-4.36-13.7-1.67-4.48-3.57-8.85-5.65-13.12-8.33-17.07-19.85-32.31-33.59-44.86-13.74-12.55-29.68-22.42-46.75-29.03-4.27-1.66-8.61-3.09-13-4.35-1.1-.3-2.19-.63-3.3-.9-1.11-.27-2.21-.58-3.32-.82l-1.67-.38c-.28-.06-.56-.13-.83-.19l-.84-.17-1.68-.35-.84-.17-.84-.15c-4.48-.84-9.01-1.45-13.55-1.87-4.54-.43-9.11-.64-13.68-.62-18.29,0-36.48,3.38-53.55,10.02-17.06,6.63-32.98,16.49-46.7,29.04-13.72,12.55-25.23,27.77-33.55,44.83-8.35,17.04-13.43,35.94-14.72,55.41-.63,9.74-.34,19.58.95,29.36.65,4.89,1.55,9.76,2.69,14.59,1.14,4.83,2.52,9.62,4.17,14.33,1.64,4.71,3.52,9.36,5.65,13.9,1.06,2.27,2.18,4.52,3.36,6.75.29.56.59,1.11.9,1.66l.92,1.65c.3.55.62,1.09.94,1.64l.96,1.63c.31.55.65,1.08.98,1.62l1,1.61c.33.54.68,1.06,1.03,1.59l1.04,1.59c.7,1.05,1.44,2.08,2.16,3.12.73,1.03,1.49,2.05,2.23,3.07.76,1.01,1.54,2.01,2.31,3.02.79.99,1.59,1.98,2.39,2.96l2.47,2.9,2.55,2.84,2.62,2.78c.9.9,1.79,1.82,2.69,2.71.92.88,1.84,1.76,2.77,2.64.95.86,1.88,1.72,2.84,2.57.97.83,1.92,1.68,2.9,2.5.99.81,1.96,1.64,2.97,2.43,1.01.78,2.01,1.58,3.04,2.35l1.54,1.14c.52.38,1.03.77,1.55,1.13,2.09,1.49,4.2,2.93,6.36,4.31,2.16,1.37,4.36,2.7,6.59,3.97,2.23,1.27,4.49,2.49,6.79,3.65,2.3,1.15,4.63,2.24,6.99,3.27,1.18.5,2.35,1.04,3.55,1.51,1.2.48,2.38.98,3.59,1.42,1.21.45,2.41.91,3.63,1.32,1.22.41,2.43.85,3.67,1.22,4.91,1.56,9.9,2.9,14.96,3.94,2.53.52,5.07.98,7.62,1.38l1.92.29c.64.1,1.28.19,1.92.27l1.92.23c.64.07,1.28.16,1.93.21,5.14.52,10.3.78,15.47.8Z"></path><g><path class="cls-4" d="M108.64,333.86c.9-1.67,3.57-2.6,4.22-3.8.27-.51.23-.88-.27-1.16-2.11-1.15-6.07,1.78-8.56,4.44l-1.5-.81c2.37-2.24,4.74-4.5,7.17-6.7l1.43.78-1.71,1.53c1.67-.87,3.25-.96,4.46-.31,1.05.57,1.37,1.65.8,2.7-.78,1.43-3.7,2.69-4.34,3.87-.23.42-.13.75.25.95.97.53,3.33-.46,5.64-1.88l-.35,1.34c-1.78,1.36-4.75,2.66-6.44,1.75-1.1-.6-1.38-1.63-.8-2.7Z"></path><path class="cls-4" d="M126.24,339.36c-1.67,1.48-4.52,3.01-6.27,2.22-1.12-.5-1.39-1.71-.58-2.92-1.23,1.03-2.79,1.4-3.91.89-2.56-1.16-1.54-4.1,3.74-8.79l1.6.72c-4.12,3.69-5.74,6.1-4.25,6.77,1.46.66,3.42-1.04,7.46-5.32l1.66.75c-4.57,4.52-5.86,6.07-4.76,6.57.98.45,3.31-.56,5.55-2.26l-.25,1.36Z"></path><path class="cls-4" d="M135.27,342.57c-1.51,1.57-4.33,3.3-6.02,2.68-1.24-.46-1.55-1.63-1.14-2.73.57-1.53,2.16-3.04,3.64-4.56-.52-.17-1.41-.6-2.08-1.08-1.78,2.23-3.82,3.78-5.36,4.56-1.17.61-1.69-.4-.17-1.27,2.06-1.2,4.03-3.45,5.44-5.79l1.48.55c-.17.25-.32.52-.49.77.99.65,2.91,1.47,3.82,1.78-1.53,1.56-4.07,3.99-4.54,5.25-.22.58-.11.98.38,1.17.95.35,3.69-1.32,5.18-2.71l-.15,1.38Z"></path><path class="cls-4" d="M141.41,344.35c-1.48,1.67-4.13,3.53-5.96,2.96-3.07-.96-1.12-4.45,1.55-8.04l-1.24-.39.88-1.21,1.26.4c.77-1.02,1.57-2.02,2.29-2.98l1.65.52c-.87,1.08-1.66,2.07-2.34,2.96l2.08.66-.91,1.2-2.11-.66c-2.75,3.71-3.68,5.69-2.33,6.11,1.03.32,3.22-.95,5.24-2.91l-.08,1.38Z"></path><path class="cls-4" d="M152.29,347.06c-1.38,1.75-3.92,3.76-5.78,3.3-1.19-.3-1.67-1.44-1.08-2.77-1.03,1.23-2.5,1.87-3.69,1.57-2.72-.69-2.25-3.76,2.12-9.32l1.7.43c-3.4,4.37-4.57,7.02-2.98,7.42,1.56.39,3.18-1.62,6.41-6.55l1.77.45c-3.7,5.26-4.69,7.01-3.52,7.3,1.05.26,3.16-1.13,5.06-3.2v1.39Z"></path><path class="cls-4" d="M161.72,348.6c-1.2,1.81-3.67,4.02-5.44,3.7-1.3-.23-1.81-1.32-1.6-2.48.29-1.61,1.58-3.37,2.78-5.13-.55-.07-1.5-.34-2.24-.7-1.35,2.51-3.08,4.4-4.46,5.44-1.05.81-1.74-.09-.39-1.22,1.81-1.55,3.35-4.1,4.32-6.66l1.56.28c-.12.27-.22.57-.35.84,1.09.46,3.12.93,4.07,1.07-1.22,1.8-3.29,4.65-3.53,5.97-.11.61.07.99.58,1.08.99.18,3.4-1.95,4.62-3.58l.09,1.38Z"></path><path class="cls-4" d="M167.54,349.2c-1.16,1.91-3.44,4.21-5.35,3.96-3.52-.45-1-5.06,1.33-9.46l1.74.22c-2.03,3.78-4.13,7.48-2.53,7.69,1.07.14,2.97-1.51,4.65-3.79l.16,1.38ZM164.35,341.27c.11-.83.89-1.48,1.63-1.39.52.07.86.5.79,1.04-.1.79-.89,1.48-1.61,1.39-.57-.07-.88-.52-.81-1.05Z"></path><path class="cls-4" d="M171.39,352.07c.13-1.89,2.18-3.84,2.27-5.2.04-.57-.15-.9-.72-.94-2.39-.17-4.8,4.13-5.96,7.58l-1.7-.12c1.23-3.01,2.46-6.05,3.76-9.06l1.63.12-.92,2.1c1.16-1.48,2.56-2.22,3.93-2.12,1.2.09,1.93.93,1.85,2.13-.12,1.63-2.26,3.97-2.36,5.32-.03.48.19.74.62.77,1.1.08,2.85-1.79,4.36-4.04l.24,1.36c-1.06,1.97-3.23,4.39-5.14,4.25-1.25-.09-1.93-.91-1.84-2.13Z"></path><path class="cls-4" d="M175.3,358.56c.02-2.71,4.28-3.86,6.89-4.32l.73-2.2c-.58.79-1.64,1.33-2.6,1.33-1.58,0-2.83-1.08-2.81-3.16.02-2.93,2.15-5.58,4.67-5.56,1.27,0,2.21.59,2.68,1.19l.32-.93h1.68s-3.62,10.81-3.62,10.81c-1.28,3.83-3.25,5.07-5.32,5.05-1.56,0-2.63-.86-2.62-2.2ZM181.72,355.62c-1.51.25-4.74,1.22-4.75,2.73,0,.7.54.96,1.24.97,1.18,0,2.55-1.06,3.5-3.7ZM184.37,347.07c-.38-.51-1.15-.97-1.99-.97-1.94-.01-3.16,1.97-3.17,3.92,0,1.25.61,1.88,1.55,1.88,1.82.01,2.85-2.57,3.61-4.83Z"></path><path class="cls-4" d="M202.56,347.58c-.75.79-2.22,1.5-3.67,1.22-.84,2.75-2.61,4.96-4.71,5.15-1.58.14-2.36-1.06-2.48-2.35-.17-1.86.45-4.88,1.19-7.12l1.72-.16c-.82,2.68-1.39,5.4-1.26,6.84.08.86.42,1.17,1.04,1.11,1.53-.14,3.72-4.14,3.14-8.21l1.74-.16c.18,1.14.14,2.32-.05,3.47,1.08.19,2.34-.19,3-1.21l.35,1.41Z"></path><path class="cls-4" d="M208.23,347.59c-.61,2.15-2.2,4.97-4.1,5.25-3.52.51-2.31-4.61-1.24-9.47l1.73-.25c-.95,4.19-1.98,8.31-.39,8.08,1.07-.15,2.47-2.25,3.47-4.89l.53,1.28ZM203.03,340.79c-.12-.83.46-1.67,1.2-1.77.52-.08.96.25,1.04.8.11.78-.46,1.67-1.18,1.77-.57.08-.98-.27-1.06-.79Z"></path><path class="cls-4" d="M214.45,346.37c-.53,2.17-1.99,5.05-3.88,5.4-3.16.58-3.07-3.41-2.4-7.83l-1.28.24.21-1.48,1.3-.24c.21-1.26.44-2.52.63-3.7l1.7-.31c-.26,1.37-.5,2.6-.68,3.71l2.15-.4-.24,1.48-2.17.4c-.69,4.57-.58,6.75.81,6.49,1.06-.2,2.4-2.35,3.27-5.02l.57,1.26Z"></path><path class="cls-4" d="M225.27,343.68c-.42,2.2-1.72,5.16-3.56,5.62-1.26.31-1.86-.53-2.08-1.12-.27.73-.79,1.82-2.33,2.2-1.65.41-3.04-.81-3.5-2.7-.77-3.15.52-6.65,3.25-7.32,1-.25,2.12.17,2.6.75l.11-1.16,1.63-.4c-.72,6.75-.77,8.37.26,8.11,1.05-.26,2.24-2.47,2.95-5.2l.67,1.22ZM219.47,342.6c-.37-.58-1.2-.94-2.01-.74-1.91.47-2.55,3.09-2,5.33.23.93.92,1.73,1.94,1.48,1.4-.34,1.95-2.43,2.07-6.07Z"></path><path class="cls-4" d="M230.84,341.78c-.27,2.22-1.4,5.25-3.24,5.82-2.18.67-2.91-.99-2.88-4.87.02-2.62.21-6.49.39-10.26l1.7-.52c-.27,4.45-.42,8.27-.43,10.53-.06,2.91.15,3.77,1.07,3.49,1.03-.32,2.09-2.6,2.67-5.37l.71,1.19Z"></path><path class="cls-4" d="M229.82,334.18c-.28-.79.14-1.72.84-1.97.5-.17.99.07,1.17.59.26.75-.14,1.72-.82,1.96-.54.19-1.02-.08-1.19-.58ZM236.21,339.87c-.2,2.23-1.22,5.3-3.03,5.92-3.36,1.16-3.14-4.1-3-9.07l1.65-.57c-.14,4.29-.38,8.54,1.14,8.01,1.02-.35,2-2.67,2.48-5.45l.76,1.16Z"></path><path class="cls-4" d="M242.08,337.5c-.11,2.23-1.01,5.34-2.8,6.04-3,1.17-3.66-2.77-3.83-7.24l-1.21.47-.07-1.49,1.23-.48c-.03-1.28-.04-2.56-.07-3.76l1.61-.63c0,1.39,0,2.65.03,3.78l2.04-.79.04,1.5-2.06.8c.18,4.62.7,6.74,2.01,6.22,1.01-.39,1.91-2.76,2.27-5.55l.8,1.13Z"></path><path class="cls-4" d="M242.76,346.99c-1.12-2.52,2.38-5.61,4.29-6.94l-.25-2.49c-.15,1.14-.79,1.99-1.69,2.39-2.72,1.21-3.95-2.07-4.05-7.47l1.6-.72c.03,3.41.44,7.45,2.26,6.64,2.02-.9,1.39-5.01,1.09-8.14l1.58-.71c.29,3.76.69,7.29,1.02,11.04.33,3.74-.81,6.3-2.74,7.17-1.56.7-2.69.15-3.11-.77ZM247.22,341.5c-1.3.85-3.61,3.27-3.04,4.56.18.39.57.64,1.21.35,1.01-.45,1.92-2.12,1.83-4.92Z"></path></g></svg> 